# xmcd
#
# Track frame offsets: 
#        150
#        18181
#        37591
#        60638
#        79986
#        104318
#        122918
#        152195
#        168044
#        184956
#        203059
#        218597
#        237054
#        267006
#        285954
#        305204
#        326309
#
# Disc length: 4504 seconds
#
# Revision: 0
# Processed by: cddbd v1.5.2PL0 Copyright (c) Steve Scherf et al.
# Submitted via: ExactAudioCopy v1.0b3
#
DISCID=d8119611
DTITLE=Prong - Unleashed In The West - Live In Berlin
DYEAR=2014
DGENRE=Metal
TTITLE0=For Dear Life
TTITLE1=Beg To Differ
TTITLE2=Unconditional
TTITLE3=Lost And Found
TTITLE4=Cut Rate
TTITLE5=Rude Awakening
TTITLE6=Broken Peace
TTITLE7=Another Worldly Device
TTITLE8=Power Of The Damager
TTITLE9=Close The Door
TTITLE10=Dark Signs
TTITLE11=Prove You Wrong
TTITLE12=Third From The Sun
TTITLE13=Steady Decline
TTITLE14=Snap Your Fingers, Snap Your Neck
TTITLE15=Whose Fist Is This Anyway?
TTITLE16=Irrelevant Thoughts
EXTD=
EXTT0=
EXTT1=
EXTT2=
EXTT3=
EXTT4=
EXTT5=
EXTT6=
EXTT7=
EXTT8=
EXTT9=
EXTT10=
EXTT11=
EXTT12=
EXTT13=
EXTT14=
EXTT15=
EXTT16=
PLAYORDER=
